<?xml version="1.0" encoding="UTF-8"?>
<svg id="Layer_1" xmlns="http://www.w3.org/2000/svg" version="1.1" viewBox="0 0 82 82">
  <!-- Generator: Adobe Illustrator 29.4.0, SVG Export Plug-In . SVG Version: 2.1.0 Build 152)  -->
  <path d="M66,20.669v-5.693c0-5.356-5.148-9.256-10.397-7.876L10.137,19.055c-3.619.952-6.137,4.183-6.137,7.876v1.889" fill="none" stroke="#ffc27e" stroke-width="5"/>
  <path d="M69.778,73.82H12.222c-4.541,0-8.222-3.719-8.222-8.308V28.128c0-4.588,3.681-8.308,8.222-8.308h57.556c4.541,0,8.222,3.72,8.222,8.308v37.385c0,4.588-3.681,8.308-8.222,8.308Z" fill="none" stroke="#fff4e9" stroke-width="5"/>
  <path d="M64.5,51c-1.933,0-3.5-1.567-3.5-3.5s1.567-3.5,3.5-3.5,3.5,1.567,3.5,3.5-1.567,3.5-3.5,3.5Z" fill="#fff4e9"/>
</svg>