<?xml version="1.0" encoding="UTF-8"?>
<svg xmlns="http://www.w3.org/2000/svg" version="1.1" viewBox="0 0 297 219">
  <defs>
    <style>
      .cls-1 {
        fill: #c2e1ff;
      }
    </style>
  </defs>
  <!-- Generator: Adobe Illustrator 28.7.1, SVG Export Plug-In . SVG Version: 1.2.0 Build 142)  -->
  <g>
    <g id="Layer_1">
      <path class="cls-1" d="M22.7,18.2c4.2-.8,8.5-.4,12.8-.5,78,0,156,0,234,0,4.9-.2,10.3,1.6,12.8,6.2,2.2,3.3,1.6,7.3,1.7,11,0,53.7,0,107.3,0,161,.1,4.5-2.6,8.8-6.7,10.8-3.6,2.1-7.9,1.4-11.8,1.5-79.7,0-159.4,0-239,0-5,.3-10.3-2.4-12.4-7.1-1.7-3.1-1-6.8-1.1-10.1,0-53.4,0-106.7,0-160.1-.5-5.9,3.9-11.7,9.8-12.6ZM19.9,30.9c0,51.4,0,102.9,0,154.3,15.6-15,30.3-30.9,45.7-46.1,4.8-5,10.1-11.6,17.9-10.9,6.6-.1,11.2,5.1,15.3,9.4,19.7,19.7,39.3,39.4,59.1,59,2.6,3.1,7.9-1.2,5.1-4.3-13.3-13.6-26.8-26.9-40.2-40.4,18.2-25.4,36-51.1,54.2-76.5,5.9-7.3,18.9-7,24.3.8,25.4,35.6,50.3,71.5,75.8,106.9.2-50.8,0-101.5,0-152.2.4-3.7-3.1-6.5-6.6-6.1-81.4,0-162.7,0-244,0-3.4-.5-7.1,2.5-6.6,6.1Z"/>
      <path class="cls-1" d="M74.9,56.6c6.9-2.6,15.4-1.2,20.6,4.2,6.1,5.9,7.4,16,3.2,23.3-3.4,6-10.2,9.9-17.1,9.7-8.6,0-16.5-6.6-18.4-14.9-2.2-9,3-19.1,11.7-22.3Z"/>
    </g>
  </g>
</svg>