<?xml version="1.0" encoding="UTF-8"?>
<svg id="Layer_1" xmlns="http://www.w3.org/2000/svg" version="1.1" viewBox="0 0 89.394 89.394">
  <!-- Generator: Adobe Illustrator 29.4.0, SVG Export Plug-In . SVG Version: 2.1.0 Build 152)  -->
  <circle cx="44.597" cy="44.697" r="43.327" fill="#fff4c5"/>
  <path d="M44.645,35.523v11.04h11.04c.818,0,1.636.818,1.636,1.636s-.818,1.636-1.636,1.636h-14.311v-14.311c0-.818.818-1.636,1.636-1.636s1.636.818,1.636,1.636Z" fill="#f4a414" fill-rule="evenodd"/>
  <g>
    <path d="M70.904,49.835c-.15.826-.339,1.639-.564,2.436" fill="none" stroke="#f4a414" stroke-linecap="round" stroke-linejoin="round" stroke-width="4"/>
    <path d="M67.987,57.936c-3.509,6.249-9.507,10.913-16.649,12.649" fill="none" stroke="#f4a414" stroke-dasharray="6.145 6.145 6.145 6.145" stroke-linecap="round" stroke-linejoin="round" stroke-width="4"/>
    <path d="M48.313,71.133c-1.044.127-2.107.192-3.185.192-10.827,0-20.12-6.568-24.112-15.937" fill="none" stroke="#f4a414" stroke-dasharray="6.145 6.145 6.145 6.145 6.145 6.145" stroke-linecap="round" stroke-linejoin="round" stroke-width="4"/>
    <path d="M19.98,52.493c-.233-.795-.428-1.606-.586-2.431" fill="none" stroke="#f4a414" stroke-linecap="round" stroke-linejoin="round" stroke-width="4"/>
  </g>
  <g>
    <path d="M18.96,43.865c.659-13.882,12.122-24.935,26.168-24.935,10.058,0,18.792,5.668,23.183,13.985" fill="none" stroke="#f4a414" stroke-linecap="round" stroke-linejoin="round" stroke-width="4"/>
    <polygon points="53.439 29.974 54.388 27.252 67.792 31.938 71.487 18.225 74.27 18.977 69.767 35.677 53.439 29.974" fill="#f4a414"/>
  </g>
</svg>