<?xml version="1.0" encoding="UTF-8"?>
<svg id="Layer_1" xmlns="http://www.w3.org/2000/svg" version="1.1" viewBox="0 0 600 600">
  <!-- Generator: Adobe Illustrator 29.4.0, SVG Export Plug-In . SVG Version: 2.1.0 Build 152)  -->
  <g id="Layer_11" data-name="Layer_1">
    <path d="M485.7,195.3c-32.6,16-16.9,51.1-16.9,51.1,12.2,25,19,52.8,19,82.3,0,103.7-84.1,187.8-187.8,187.8s-187.8-84.1-187.8-187.8,73.7-177,168-186.8v48.7s-.2,2.8,2.8,4.7,6.2,0,6.2,0l155.7-91.8s3.5-1.7,3.5-5.4-3.5-5.1-3.5-5.1L289.7,1.6s-3.6-2.5-6.6-1.3c-3.2,1.3-2.8,5.5-2.8,5.5v52.2C139.6,68.2,28.6,185.3,28.6,328.6s121.5,271.4,271.4,271.4,266.494-121.58,271.4-271.4c2.26-69.019,2.023-87.209-3.27-100.617-10.176-25.776-36.69-41.742-64.17-38.166-6.016.783-12.185,2.483-18.26,5.483Z" fill="#f7f7f7"/>
  </g>
</svg>