<?xml version="1.0" encoding="UTF-8"?>
<svg id="Layer_1" xmlns="http://www.w3.org/2000/svg" version="1.1" viewBox="0 0 45.123 45.123">
  <!-- Generator: Adobe Illustrator 29.4.0, SVG Export Plug-In . SVG Version: 2.1.0 Build 152)  -->
  <circle cx="22.561" cy="22.561" r="19.42" fill="none" stroke="#a1e2ce" stroke-width="2"/>
  <path d="M22.561,3.141C11.794,3.141,3.141,11.794,3.141,22.561s8.653,19.42,19.42,19.42,19.42-8.653,19.42-19.42" fill="none" stroke="#41d8a9" stroke-linecap="round" stroke-linejoin="round" stroke-width="2"/>
  <path d="M21.6,19.677c0,2.692-1.538,4.422-4.23,4.422s-4.422-1.538-4.422-4.422,1.538-4.422,4.422-4.422,4.23,1.538,4.23,4.422ZM16.024,19.677c0,1.538.385,2.115,1.154,2.115s1.154-.577,1.154-2.115-.577-2.115-1.154-2.115-1.154.577-1.154,2.115ZM16.985,30.637l9.806-15.19h2.5l-9.806,15.19h-2.5ZM33.137,26.599c0,2.692-1.538,4.422-4.23,4.422s-4.422-1.538-4.422-4.422,1.538-4.422,4.422-4.422,4.23,1.538,4.23,4.422ZM27.561,26.599c0,1.538.385,2.115,1.154,2.115s1.154-.577,1.154-2.115-.577-2.115-1.154-2.115-1.154.577-1.154,2.115Z" fill="#41d8a9"/>
</svg>