<?xml version="1.0" encoding="UTF-8"?>
<svg xmlns="http://www.w3.org/2000/svg" version="1.1" viewBox="0 0 427 427">
  <defs>
    <style>
      .cls-1 {
        fill: #fff;
      }
    </style>
  </defs>
  <!-- Generator: Adobe Illustrator 28.7.2, SVG Export Plug-In . SVG Version: 1.2.0 Build 154)  -->
  <g>
    <g id="Layer_1">
      <g>
        <path class="cls-1" d="M59.9,29.5c-.3-5.8,4.9-10.9,10.7-10.6,61.3,0,122.7,0,184,0,5.2,0,9.9,4.3,10,9.6.3,13.7,0,27.4.1,41,29.9,10.1,59.8,20,89.8,30,3.7,1.4,8.1,2.1,10.6,5.5,1.7,2.1,2.1,4.9,2,7.5,0,91.6,0,183.3,0,274.9,10.7.5,21.5-.1,32.2.3,6.6.6,10.8,8.6,7.8,14.4-1.8,4.1-6.3,6.3-10.6,5.9-122.4,0-244.7,0-367.1,0-6,.3-11.4-5.5-10.4-11.5.5-5.1,5.3-9.2,10.4-9,10.1,0,20.3,0,30.4,0,0-119.3,0-238.7,0-358ZM80.4,39.4c0,116,0,232.1,0,348.1,17,0,34,0,51,0,.4-17.1,0-34.1.2-51.2-.1-5.4,4.5-10.4,10-10.2,13.6,0,27.2,0,40.8,0,5.7-.3,10.8,4.7,10.6,10.4,0,17,0,34,0,51,17-.1,34.1,0,51.1,0,0-116,0-232,0-348-54.6-.2-109.2,0-163.8,0ZM264.7,91.3c0,98.7.1,197.4,0,296,27.3.4,54.7.2,82,0-.1-89.7,0-179.4,0-269.1-9.9-3-19.6-6.6-29.4-9.7-17.5-5.6-34.8-12.1-52.5-17.3ZM152.1,346.7c0,13.6,0,27.2,0,40.8,6.8,0,13.5,0,20.3,0,.3-13.7.2-27.3,0-41-6.8.2-13.6-.2-20.4,0Z"/>
        <path class="cls-1" d="M117.9,81c2.8-.9,5.8-.6,8.6-.6,5.3.1,10.7-.2,16,.1,4,.2,7.9,3,8.9,6.9,1.7,4.5-.6,10-4.8,12.3-2.5,1.4-5.4,1.2-8.1,1.2-5.9,0-11.9,0-17.8,0-6-.1-10.9-6.5-9.3-12.3.6-3.5,3.2-6.4,6.5-7.5Z"/>
        <path class="cls-1" d="M179,81.1c5.4-1.5,11-.4,16.5-.8,5.1.2,11.2-1.1,15.1,3,5,4.8,3.2,14.4-3.5,16.7-5,1.5-10.4.4-15.6.8-5.4-.3-11.9,1.3-16-3.1-5.1-4.8-3.1-14.4,3.5-16.7Z"/>
        <path class="cls-1" d="M119.9,141.9c7.2-.3,14.4,0,21.7-.1,6-.3,11.5,5.5,10.4,11.6-.4,5.2-5.4,9.1-10.4,8.9-7,0-14,.1-21,0-6.1-.2-10.8-6.8-9.1-12.6,1-3.9,4.4-7.2,8.5-7.7Z"/>
        <path class="cls-1" d="M181.7,141.9c7.3-.2,14.5,0,21.8,0,5.5,0,10.4,5.1,9.9,10.6,0,5.2-4.8,9.8-9.9,9.8-6.7.1-13.4,0-20.1,0-5.1.3-10.2-3.6-10.8-8.8-1-5.6,3.5-11.3,9.1-11.7Z"/>
        <path class="cls-1" d="M292.9,142.1c6.8-.7,13.8-.1,20.6-.4,3.6-.2,7.7.6,10.1,3.6,3.8,4.2,3.1,11.5-1.6,14.7-4.8,3.7-11.1,1.7-16.6,2.2-5.7-.5-12.4,1.6-17-2.8-6-4.9-3.2-15.9,4.4-17.4Z"/>
        <path class="cls-1" d="M117,204.2c4.9-1.9,10.4-.8,15.5-1.1,4.9.3,10.3-1,14.8,1.6,5.3,3.1,6.2,11.2,2,15.6-2.2,2.5-5.6,3.4-8.8,3.3-6.7,0-13.3,0-20-.1-5.5-.2-10.1-5.6-9.5-11.1.3-3.6,2.6-6.8,5.8-8.3Z"/>
        <path class="cls-1" d="M179.8,203.7c7.5-1.1,15.2-.3,22.8-.5,5.3-.4,10.5,3.8,10.9,9.1.8,5.7-4.1,11.4-10,11.3-7,.1-14,.2-21,0-4.5,0-8.6-3.3-9.6-7.7-1.4-5.1,1.8-10.9,6.9-12.3Z"/>
        <path class="cls-1" d="M292.7,203.6c6.9-.9,13.9-.2,20.8-.5,4.7-.4,10.2,1.6,11.9,6.4,2.6,5.8-1.5,13.2-7.9,14-7.3.5-14.7.1-22,.1-4.2,0-8.2-2.6-9.6-6.6-2.2-5.3,1.1-12.2,6.8-13.5Z"/>
        <path class="cls-1" d="M119.8,264.8c6.9-.4,13.8,0,20.7-.2,4-.2,8.3,1.7,10.3,5.3,2.8,5,.6,12.1-4.8,14.3-5,1.8-10.4.6-15.6.9-5.7-.3-12.9,1.5-17-3.7-5.2-5.6-1.3-15.9,6.3-16.7Z"/>
        <path class="cls-1" d="M180.8,264.8c7.2-.5,14.5,0,21.8-.2,5.1-.3,10.2,3.5,10.8,8.7,1.1,5.8-3.9,11.8-9.8,11.8-7,0-14,0-21.1,0-5.5,0-10.4-5.2-9.9-10.7,0-4.7,3.8-8.6,8.2-9.6Z"/>
        <path class="cls-1" d="M292.9,264.9c7.2-.6,14.4,0,21.6-.3,4.4-.4,9,2,10.7,6,2.6,5.4-.7,12.6-6.5,14.1-5.3.9-10.8.2-16.2.4-5.1,0-11.4,1-15-3.7-4.8-5.5-1.8-14.9,5.3-16.6Z"/>
        <path class="cls-1" d="M290.9,327.1c5.3-1.9,11.1-.7,16.6-1,5,.3,10.8-1.2,15,2.4,4.1,3.2,4.8,9.6,1.8,13.7-1.9,2.9-5.3,4.3-8.7,4.3-6.7,0-13.4,0-20,0-4.7.1-9.3-3.5-10.1-8.1-1.1-4.4,1.3-9.4,5.5-11.3Z"/>
      </g>
    </g>
  </g>
</svg>