<?xml version="1.0" encoding="UTF-8"?>
<svg id="Layer_1" xmlns="http://www.w3.org/2000/svg" version="1.1" viewBox="0 0 16 16">
  <!-- Generator: Adobe Illustrator 29.1.0, SVG Export Plug-In . SVG Version: 2.1.0 Build 142)  -->
  <defs>
    <style>
      .st0 {
        fill: #5bddab;
      }
    </style>
  </defs>
  <path class="st0" d="M15.5,6.7l-.7-.7c-.3-.3-.5-.8-.5-1.3v-1c0-1-.8-1.8-1.8-1.8h-1c-.5,0-.9-.2-1.3-.5l-.7-.7c-.7-.7-1.9-.7-2.6,0l-.7.7c-.3.3-.8.5-1.3.5h-1c-1,0-1.8.8-1.8,1.8v1c0,.5-.2.9-.5,1.3l-.7.7c-.7.7-.7,1.9,0,2.6l.7.7c.3.3.5.8.5,1.3v1c0,1,.8,1.8,1.8,1.8h1c.5,0,.9.2,1.3.5l.7.7c.7.7,1.9.7,2.6,0l.7-.7c.3-.3.8-.5,1.3-.5h1c1,0,1.8-.8,1.8-1.8v-1c0-.5.2-.9.5-1.3l.7-.7c.7-.7.7-1.9,0-2.6ZM8,13.4c-3,0-5.4-2.4-5.4-5.4s2.4-5.4,5.4-5.4,5.4,2.4,5.4,5.4-2.4,5.4-5.4,5.4Z"/>
  <path class="st0" d="M9.6,6l-2.7,2.7-1.1-1.1c-.3-.3-.8-.3-1.1,0-.3.3-.3.8,0,1.1l1.7,1.7c.2.2.4.2.6.2s.4,0,.6-.2l3.3-3.3c.3-.3.3-.8,0-1.1-.3-.3-.8-.3-1.1,0Z"/>
</svg>