<?xml version="1.0" encoding="UTF-8" ?>
<!DOCTYPE svg PUBLIC "-//W3C//DTD SVG 1.1//EN" "http://www.w3.org/Graphics/SVG/1.1/DTD/svg11.dtd">
<svg width="512pt" height="512pt" viewBox="0 0 512 512" version="1.1" xmlns="http://www.w3.org/2000/svg">
<g id="#2197efff">
<path fill="#2197ef" opacity="1.00" d=" M 245.32 50.47 C 279.91 49.18 314.84 56.57 345.76 72.20 C 379.34 89.04 408.18 115.20 428.19 147.01 C 457.35 192.73 467.03 250.22 454.77 303.02 C 445.92 342.18 425.18 378.50 396.14 406.20 C 369.97 431.35 337.06 449.46 301.74 457.90 C 251.61 470.09 197.00 462.58 152.15 437.03 C 125.33 421.94 101.98 400.73 84.28 375.56 C 63.05 345.48 50.12 309.60 47.41 272.87 C 44.21 232.78 53.09 191.82 72.70 156.70 C 74.81 152.99 76.76 148.80 80.68 146.67 C 86.32 143.29 94.18 144.63 98.42 149.65 C 102.57 154.23 102.95 161.45 99.69 166.63 C 85.32 191.00 76.92 218.83 75.39 247.08 C 73.49 280.93 81.44 315.30 98.28 344.75 C 115.11 374.50 140.69 399.21 170.99 415.03 C 200.02 430.30 233.36 437.19 266.07 434.81 C 306.71 432.13 346.08 414.67 375.61 386.66 C 404.83 359.23 424.43 321.72 429.91 282.00 C 433.79 254.52 431.21 226.13 422.27 199.85 C 411.08 166.72 389.82 137.12 362.11 115.81 C 332.24 92.61 294.78 79.37 256.95 78.78 C 212.01 77.61 166.96 94.50 133.79 124.84 C 130.81 127.70 127.21 130.34 122.90 130.45 C 116.31 130.99 109.84 126.24 108.31 119.83 C 107.10 115.25 108.39 110.10 111.70 106.70 C 147.41 72.50 195.93 52.23 245.32 50.47 Z" />
<path fill="#2197ef" opacity="1.00" d=" M 238.45 117.72 C 265.25 114.93 292.86 119.95 316.80 132.35 C 345.04 146.80 368.09 171.11 380.96 200.10 C 393.53 228.05 396.40 260.19 389.15 289.95 C 381.83 320.62 363.65 348.50 338.71 367.75 C 317.37 384.42 291.08 394.64 264.08 396.68 C 235.71 398.99 206.68 392.35 182.18 377.84 C 153.76 361.23 131.54 334.30 120.73 303.19 C 111.10 275.76 110.37 245.31 118.62 217.44 C 127.56 186.88 147.39 159.70 173.63 141.69 C 192.78 128.44 215.28 120.11 238.45 117.72 M 240.22 144.23 C 217.26 146.77 195.21 156.63 177.93 171.96 C 157.36 190.00 143.63 215.70 140.35 242.89 C 137.19 267.61 142.47 293.32 155.25 314.73 C 170.22 340.15 195.41 359.36 223.98 366.78 C 249.16 373.54 276.68 371.22 300.33 360.22 C 324.16 349.34 343.91 329.89 355.27 306.29 C 367.46 281.28 369.84 251.71 361.93 225.05 C 353.70 196.76 333.92 172.11 308.16 157.84 C 287.69 146.30 263.55 141.58 240.22 144.23 Z" />
<path fill="#2197ef" opacity="1.00" d=" M 207.72 197.97 C 206.69 191.34 211.44 184.53 217.96 183.09 C 222.64 181.87 227.75 183.54 231.07 186.98 C 238.14 193.96 245.10 201.04 252.16 208.03 C 259.36 200.94 266.38 193.66 273.65 186.65 C 278.80 181.64 287.91 181.95 292.67 187.33 C 297.67 192.40 297.45 201.35 292.30 206.25 C 282.92 215.70 273.50 225.12 264.05 234.51 C 275.03 234.48 286.02 234.38 297.00 234.54 C 303.93 234.71 309.90 241.07 309.70 247.99 C 309.90 254.91 303.95 261.27 297.02 261.46 C 286.53 261.65 276.04 261.46 265.56 261.54 C 265.55 264.91 265.54 268.28 265.55 271.65 C 276.04 271.76 286.53 271.53 297.02 271.75 C 303.88 271.91 309.80 278.17 309.70 285.01 C 309.99 292.04 303.94 298.54 296.89 298.67 C 286.45 298.84 276.00 298.67 265.56 298.74 C 265.50 310.50 265.62 322.25 265.50 334.01 C 265.62 341.19 259.19 347.58 252.00 347.41 C 244.83 347.60 238.36 341.20 238.50 334.02 C 238.37 322.26 238.50 310.50 238.44 298.74 C 228.94 298.67 219.43 298.83 209.92 298.68 C 202.76 298.70 196.50 292.13 196.79 285.00 C 196.70 277.93 203.00 271.61 210.07 271.71 C 219.53 271.58 228.99 271.73 238.45 271.65 C 238.46 268.28 238.45 264.91 238.45 261.54 C 228.96 261.48 219.48 261.61 210.00 261.49 C 202.88 261.53 196.60 255.09 196.79 247.98 C 196.59 240.88 202.89 234.45 209.99 234.51 C 220.06 234.40 230.14 234.50 240.21 234.48 C 231.07 225.40 222.01 216.25 212.87 207.18 C 210.28 204.72 208.07 201.63 207.72 197.97 Z" />
</g>
<g id="#cee8faff">
<path fill="#cee8fa" opacity="1.00" d=" M 240.22 144.23 C 263.55 141.58 287.69 146.30 308.16 157.84 C 333.92 172.11 353.70 196.76 361.93 225.05 C 369.84 251.71 367.46 281.28 355.27 306.29 C 343.91 329.89 324.16 349.34 300.33 360.22 C 276.68 371.22 249.16 373.54 223.98 366.78 C 195.41 359.36 170.22 340.15 155.25 314.73 C 142.47 293.32 137.19 267.61 140.35 242.89 C 143.63 215.70 157.36 190.00 177.93 171.96 C 195.21 156.63 217.26 146.77 240.22 144.23 M 207.72 197.97 C 208.07 201.63 210.28 204.72 212.87 207.18 C 222.01 216.25 231.07 225.40 240.21 234.48 C 230.14 234.50 220.06 234.40 209.99 234.51 C 202.89 234.45 196.59 240.88 196.79 247.98 C 196.60 255.09 202.88 261.53 210.00 261.49 C 219.48 261.61 228.96 261.48 238.45 261.54 C 238.45 264.91 238.46 268.28 238.45 271.65 C 228.99 271.73 219.53 271.58 210.07 271.71 C 203.00 271.61 196.70 277.93 196.79 285.00 C 196.50 292.13 202.76 298.70 209.92 298.68 C 219.43 298.83 228.94 298.67 238.44 298.74 C 238.50 310.50 238.37 322.26 238.50 334.02 C 238.36 341.20 244.83 347.60 252.00 347.41 C 259.19 347.58 265.62 341.19 265.50 334.01 C 265.62 322.25 265.50 310.50 265.56 298.74 C 276.00 298.67 286.45 298.84 296.89 298.67 C 303.94 298.54 309.99 292.04 309.70 285.01 C 309.80 278.17 303.88 271.91 297.02 271.75 C 286.53 271.53 276.04 271.76 265.55 271.65 C 265.54 268.28 265.55 264.91 265.56 261.54 C 276.04 261.46 286.53 261.65 297.02 261.46 C 303.95 261.27 309.90 254.91 309.70 247.99 C 309.90 241.07 303.93 234.71 297.00 234.54 C 286.02 234.38 275.03 234.48 264.05 234.51 C 273.50 225.12 282.92 215.70 292.30 206.25 C 297.45 201.35 297.67 192.40 292.67 187.33 C 287.91 181.95 278.80 181.64 273.65 186.65 C 266.38 193.66 259.36 200.94 252.16 208.03 C 245.10 201.04 238.14 193.96 231.07 186.98 C 227.75 183.54 222.64 181.87 217.96 183.09 C 211.44 184.53 206.69 191.34 207.72 197.97 Z" />
</g>
</svg>
