<?xml version="1.0" encoding="UTF-8"?>
<svg id="Layer_1" xmlns="http://www.w3.org/2000/svg" version="1.1" viewBox="0 0 113.4 94">
  <!-- Generator: Adobe Illustrator 29.0.0, SVG Export Plug-In . SVG Version: 2.1.0 Build 186)  -->
  <defs>
    <style>
      .st0 {
        fill: #5adbb0;
      }
    </style>
  </defs>
  <path class="st0" d="M101.3,0H12.1C5.4,0,0,5.4,0,12.1v11.1h113.4v-11.1c0-6.7-5.4-12.1-12.1-12.1h0Z"/>
  <path class="st0" d="M0,81.9c0,6.7,5.4,12.1,12.1,12.1h89.2c6.7,0,12.1-5.4,12.1-12.1v-49.7H0v49.7ZM74.6,65.7c2.1,0,4,.9,5.4,2.3,1.4-1.4,3.3-2.3,5.4-2.3,4.2,0,7.6,3.4,7.6,7.6s-3.4,7.6-7.6,7.6-4-.9-5.4-2.3c-1.4,1.4-3.3,2.3-5.4,2.3-4.2,0-7.6-3.4-7.6-7.6s3.4-7.6,7.6-7.6Z"/>
</svg>