<?xml version="1.0" encoding="UTF-8"?>
<svg xmlns="http://www.w3.org/2000/svg" version="1.1" viewBox="0 0 496 522">
  <!-- Generator: Adobe Illustrator 28.7.1, SVG Export Plug-In . SVG Version: 1.2.0 Build 142)  -->
  <g>
    <g id="Layer_1">
      <path d="M490.1,226.8c-5.4-38.8-20.4-76.3-43.4-108.1-36.8-51.7-94.7-88.1-157.4-98.4-21.2-3.8-42.9-4.2-64.3-2.5-10.8,1.3-21.5,2.7-32,5.3-57.6,13-109.8,48.1-144,96.3C22.6,156.3,6.7,200.7,4.2,246.1c-1,10.6-.9,21.2.2,31.7.9,16.6,3.9,33.1,8.3,49.1,15.6,56.6,52.7,106.8,102,138.7,37.8,24.8,82.6,38.6,127.7,39.5,35.3.9,70.7-6,103.1-20.1,36.8-15.9,69.5-41.2,94.4-72.7,25.5-32.1,42.7-70.8,49.3-111.3,4-24.5,4.3-49.7.9-74.3ZM471.9,281.1c-4.6,54.8-30.5,107.5-71.2,144.6-24.1-17.3-53.6-24-79.6-37.5-10.1-5.4-20.6-12.8-24.6-24.1-1.6-13.6-1.5-27.4-.9-41.1,7.3-6.4,11.7-15.4,15.4-24.1,3.3-7.5,5.2-15.6,6.6-23.7,8-1.5,12.5-9.2,14.6-16.4,2-7.6,4-16.1.8-23.7-1.1-3.2-3.5-5.8-6-8,4.5-13.6,7.5-27.8,9-42.1,1.6-18.3,1.5-37.8-7.2-54.5-7-13.8-21.5-22.6-36.7-24.3-6.8-10.8-19.9-14.9-31.9-16.5-18.6-1.8-37.9,0-55.3,6.9-14.3,5.6-26.9,16.1-34,29.9-8.7,16.3-10.5,35.3-9.5,53.5.5,16,3.8,31.7,7.6,47.2-4.2,3.3-7.1,8.3-7.4,13.7-.5,8.7,1.3,17.7,5.4,25.4,2.4,4.4,6.5,8.1,11.6,8.7,1.4,12,5.8,23.6,11.7,34.1,2.9,5,6,10.2,10.8,13.6,0,13.7.6,27.4-.9,41-4.1,11.6-14.9,19.2-25.4,24.7-26.1,13.3-55.4,20.2-79.5,37.3-38.8-35.7-64.4-85.5-70.4-138-5.8-47.8,4.1-97.4,28.4-138.9,28.6-49.9,77.2-88.1,132.6-103.7,47.5-13.8,99.4-11.2,145.3,7.2,53.5,21.1,98.1,63.7,121.6,116.1,15.9,35,22.6,74.3,19,112.6Z"/>
    </g>
  </g>
</svg>