<?xml version="1.0" encoding="UTF-8"?>
<svg id="Layer_1" xmlns="http://www.w3.org/2000/svg" version="1.1" viewBox="0 0 600 600">
  <!-- Generator: Adobe Illustrator 29.1.0, SVG Export Plug-In . SVG Version: 2.1.0 Build 142)  -->
  <defs>
    <style>
      .st0 {
        fill: #896e58;
      }
    </style>
  </defs>
  <path class="st0" d="M556.5,241.7c-2.1-6.3-6.8-16.4-12-26.8-10.5-21.1-36.6-29.1-57-17.4-18.7,10.7-25.4,33.8-16.4,53.4,10.9,23.9,17,50.4,17,78.3,0,82.5-53,152.6-127,178-4.9,1.6-10,3.2-15.1,4.4-2.6.6-5.3,1.3-8,1.8-3.3.6-6.5,1.3-9.8,1.7-6.1.9-12.2,1.5-18.4,1.8-3.3.2-6.4.3-9.7.3s-6,0-9-.3c-99.3-5-178.2-87.2-178.2-187.8s3.1-41.4,9-59.9c.5-1.7,1.1-3.4,1.7-5.1,18.3-53.7,59.7-93.4,111.8-111.7,1.8-.6,3.6-1.3,5.4-1.9.3,0,.5-.2.8-.2,1.7-.6,3.4-1.2,5.2-1.6,11.1-3.2,22.5-5.3,34.3-6.6v48.8s-.2,2.8,2.8,4.7c3,1.9,6.2,0,6.2,0l73.8-43.5,82.1-48.4s1-.5,1.9-1.5c.8-.9,1.5-2.2,1.5-3.8,0-3.7-3.4-5.2-3.4-5.2L290.5,1.6s-3.6-2.5-6.6-1.3c-3.2,1.3-2.8,5.4-2.8,5.4v52.3c-70.4,5.1-133.5,36.9-178.5,85.5-2.1,2.3-4.2,4.5-6.2,6.8-3,3.4-5.8,6.7-8.5,10.2-1.8,2.3-3.5,4.5-5.3,6.8-.8,1.1-1.7,2.3-2.5,3.4-3.4,4.8-8.7,12.8-11.8,17.8-2.3,3.7-4.5,7.5-6.6,11.4-2.1,3.8-4.1,7.7-6,11.7-1.9,3.9-3.6,7.9-5.3,12-1.7,4.1-3.4,8.2-4.9,12.3-1.5,4.1-2.9,8.3-4.3,12.6-1.3,4.2-2.5,8.5-3.6,12.8-1.1,4.4-2.1,8.7-3,13.1-.5,2.4-1,4.9-1.4,7.3-.5,2.5-.9,5-1.3,7.5-1.9,13-2.9,26.2-2.9,39.7s0,9.3.4,14c6.2,111,84.3,210.4,190.5,244.9.5.2.9.3,1.4.5,40.6,12.3,85.5,15.4,131.3,6.5,120.7-23.4,211.2-128.1,217.8-250.8,1.9-36-3.1-70.5-14-102.4Z"/>
</svg>